HIERARCHY
ROOT Hips
{
	OFFSET 0.000000 0.000000 0.000000 
	CHANNELS 6 Xposition Yposition Zposition Zrotation Yrotation Xrotation
	JOINT LeftUpLeg
	{
		OFFSET 1.363060 -1.794630 0.839290 
		CHANNELS 3 Zrotation Yrotation Xrotation
		JOINT LeftLeg
		{
			OFFSET 2.448110 -6.726130 0.000000 
			CHANNELS 3 Zrotation Yrotation Xrotation
			JOINT LeftFoot
			{
				OFFSET 2.562200 -7.039590 0.000000 
				CHANNELS 3 Zrotation Yrotation Xrotation
				JOINT LeftToeBase
				{
					OFFSET 0.157640 -0.433110 2.322550 
					CHANNELS 3 Zrotation Yrotation Xrotation
					End Site
					{
						OFFSET 0.000000 0.000000 0.000000 
					}
				}
			}
		}
	}
	JOINT RightUpLeg
	{
		OFFSET -1.305520 -1.794630 0.839290 
		CHANNELS 3 Zrotation Yrotation Xrotation
		JOINT RightLeg
		{
			OFFSET -2.542530 -6.985550 0.000000 
			CHANNELS 3 Zrotation Yrotation Xrotation
			JOINT RightFoot
			{
				OFFSET -2.568260 -7.056230 0.000000 
				CHANNELS 3 Zrotation Yrotation Xrotation
				JOINT RightToeBase
				{
					OFFSET -0.164730 -0.452590 2.363150 
					CHANNELS 3 Zrotation Yrotation Xrotation
					End Site
					{
						OFFSET 0.000000 0.000000 0.000000 
					}
				}
			}
		}
	}
	JOINT Spine
	{
		OFFSET 0.028270 2.035590 -0.193380 
		CHANNELS 3 Zrotation Yrotation Xrotation
		JOINT Spine1
		{
			OFFSET 0.056720 2.048850 -0.042750 
			CHANNELS 3 Zrotation Yrotation Xrotation
			JOINT Neck1
			{
				OFFSET -0.054170 1.746240 0.172020 
				CHANNELS 3 Zrotation Yrotation Xrotation
				JOINT Head
				{
					OFFSET 0.104070 1.761360 -0.123970 
					CHANNELS 3 Zrotation Yrotation Xrotation
					End Site
					{
						OFFSET 0.000000 0.000000 0.000000 
					}
				}
			}
			JOINT LeftArm
			{
				OFFSET 3.362410 1.200890 -0.311210 
				CHANNELS 3 Zrotation Yrotation Xrotation
				JOINT LeftForeArm
				{
					OFFSET 4.983000 -0.000000 -0.000000 
					CHANNELS 3 Zrotation Yrotation Xrotation
					JOINT LeftHand
					{
						OFFSET 3.483560 -0.000000 -0.000000 
						CHANNELS 3 Zrotation Yrotation Xrotation
						JOINT LeftHandIndex1
						{
							OFFSET 0.715260 -0.000000 -0.000000 
							CHANNELS 3 Zrotation Yrotation Xrotation
							End Site
							{
								OFFSET 0.000000 0.000000 0.000000 
							}
						}
					}
				}
			}
			JOINT RightArm
			{
				OFFSET -3.136600 1.374050 -0.404650 
				CHANNELS 3 Zrotation Yrotation Xrotation
				JOINT RightForeArm
				{
					OFFSET -5.241900 -0.000000 -0.000000 
					CHANNELS 3 Zrotation Yrotation Xrotation
					JOINT RightHand
					{
						OFFSET -3.444170 -0.000000 -0.000000 
						CHANNELS 3 Zrotation Yrotation Xrotation
						JOINT RightHandIndex1
						{
							OFFSET -0.622530 -0.000000 -0.000000 
							CHANNELS 3 Zrotation Yrotation Xrotation
							End Site
							{
								OFFSET 0.000000 0.000000 0.000000 
							}
						}
					}
				}
			}
		}
	}
}
MOTION
Frames: 16
Frame Time: 0.041667
-0.693519 17.909424 4.811330 -4.310175 13.830147 -0.470097 -10.387667 -13.500843 -18.991250 4.123304 11.267685 37.481233 1.078978 -3.163635 -8.445240 8.476300 -16.458600 -54.260600 19.769678 -4.806007 -11.151617 -2.168153 -7.590196 25.472627 -1.203605 -0.558322 -19.476086 -0.886100 6.000400 -16.785500 18.610066 -1.664609 30.985714 -6.482309 1.191577 -24.545411 7.042062 -12.041781 26.705483 1.720500 -5.459700 10.552700 -73.812630 -45.479168 61.822424 125.160590 -51.447475 -89.540184 -0.813942 0.672812 -33.886479 -7.125000 0.000000 0.000000 57.481906 15.013239 2.795089 -154.183493 31.246038 -112.335531 0.992697 -0.102065 -9.557550 7.125000 0.000000 0.000000 
-0.739074 17.926470 4.811233 -3.917459 14.953823 -0.446276 -10.405232 -14.110864 -19.028661 4.033171 11.180927 37.081086 1.059207 -3.242932 -7.986889 8.506400 -16.479300 -54.366700 19.768927 -5.028263 -11.108667 -2.178412 -7.573391 25.535222 -1.244531 -0.872284 -20.188781 -0.818300 5.772000 -16.124300 16.684615 -1.225563 31.755301 -6.191416 1.292863 -24.906060 9.086652 -13.318873 26.291785 2.167600 -5.860900 10.579400 -74.363334 -45.310511 63.102512 125.584996 -51.367349 -89.872263 -0.820122 0.679019 -33.677622 -7.125000 0.000000 0.000000 55.315377 16.048227 0.496596 -152.919215 32.651326 -111.424819 0.905592 -0.228163 -9.824969 7.125000 0.000000 0.000000 
-0.789724 17.941165 4.809959 -3.294628 15.976178 -0.385775 -10.547662 -14.664013 -19.098761 3.947186 11.113175 36.712853 1.048292 -3.321469 -7.626977 8.526500 -16.493100 -54.437600 19.638053 -5.216681 -11.193053 -2.235317 -7.616693 25.833146 -1.296821 -1.077047 -20.836368 -0.753900 5.545700 -15.471700 13.865094 -0.529013 32.864590 -5.681291 1.469891 -25.287128 11.459098 -14.813412 25.286652 2.674700 -6.351800 10.485100 -75.009265 -45.026942 64.353960 126.517030 -51.120583 -90.645653 -0.831117 0.684845 -34.066354 -7.125000 0.000000 0.000000 52.373483 17.227068 -2.158785 -151.045479 34.545632 -110.034312 0.791981 -0.339865 -9.968380 7.125000 0.000000 0.000000 
-0.842039 17.949101 4.805158 -2.329436 16.754619 -0.237983 -10.949892 -15.038952 -19.218074 3.872784 11.080087 36.426463 1.035436 -3.324848 -7.408219 8.570800 -16.523400 -54.593500 19.238166 -5.358968 -11.466320 -2.352728 -7.739461 26.424519 -1.361094 -1.071593 -21.301507 -0.690600 5.312900 -14.803100 10.007730 0.508473 34.223164 -4.788981 1.767494 -25.606712 14.085421 -16.438697 23.818804 3.230500 -6.907700 10.349000 -75.719471 -44.543142 65.443570 127.851713 -50.720048 -91.767938 -0.848461 0.688418 -34.573870 -7.125000 0.000000 0.000000 48.365154 18.559983 -5.086643 -148.030827 37.203878 -107.743651 0.739460 -0.470680 -9.920429 7.125000 0.000000 0.000000 
-0.893473 17.949101 4.796635 -1.083355 17.046297 0.008849 -11.562940 -15.128118 -19.397279 3.817072 11.096617 36.263616 1.013386 -3.224340 -7.296977 8.642500 -16.572100 -54.845400 18.614283 -5.288213 -11.914408 -2.536482 -7.948672 27.332566 -1.437344 -0.864396 -21.600129 -0.605900 4.982400 -13.858300 5.119305 1.935634 35.615721 -3.538154 2.178212 -25.652158 17.100004 -18.016812 21.880343 3.910800 -7.445000 10.235700 -76.390815 -43.831431 66.025572 129.613819 -50.105236 -93.260470 -0.871056 0.698213 -34.936827 -7.125000 0.000000 0.000000 43.284355 20.088712 -7.757013 -143.025589 40.833523 -103.794366 0.869465 -0.655646 -10.387897 7.125000 0.000000 0.000000 
-0.940595 17.939892 4.783997 0.305359 16.695748 0.392200 -12.269924 -14.796631 -19.718210 3.781968 11.183705 36.254079 0.984722 -3.021420 -7.318725 8.761700 -16.651900 -55.262300 17.890013 -4.888735 -12.521083 -2.778154 -8.237040 28.517608 -1.510214 -0.554200 -21.750773 -0.530400 4.666700 -12.960400 -0.743444 3.772032 36.371926 -2.175024 2.623804 -25.458333 20.044955 -19.323071 19.786325 4.585400 -7.889700 10.122000 -76.917029 -42.572822 65.925123 131.922459 -49.180451 -95.206907 -0.885272 0.726210 -35.325823 -7.125000 0.000000 0.000000 38.011167 21.640449 -9.941010 -135.686086 44.918061 -97.478127 1.011373 -0.841257 -11.694140 7.125000 0.000000 0.000000 
-0.983114 17.921866 4.764306 1.747725 15.778219 0.877447 -13.071150 -14.024618 -20.198259 3.779353 11.339517 36.433664 0.964383 -2.806937 -7.478602 8.872700 -16.725100 -55.648700 17.058660 -4.250905 -13.247374 -3.053501 -8.578873 29.857232 -1.565361 -0.177792 -21.703916 -0.529700 4.663600 -12.951700 -6.899147 5.722028 36.324737 -0.958949 3.014764 -24.715384 22.458810 -20.223298 17.621305 5.144100 -8.209300 9.969100 -77.360278 -40.807332 65.183913 134.612668 -47.925875 -97.451746 -0.895513 0.770329 -35.406472 -7.125000 0.000000 0.000000 33.158024 23.307578 -12.084102 -125.819508 48.756376 -88.019675 1.094254 -1.023642 -12.671697 7.125000 0.000000 0.000000 
-1.017305 17.894532 4.744516 3.215959 14.279434 1.339946 -14.051495 -12.828929 -20.644660 3.818822 11.552105 36.822064 0.954305 -2.580445 -7.835882 8.910100 -16.749500 -55.778600 16.022771 -3.324921 -13.920739 -3.340065 -8.956720 31.244373 -1.610269 0.330695 -21.448713 -0.578700 4.871500 -13.542400 -12.737015 7.496819 35.235470 0.008933 3.306092 -23.991833 23.974401 -20.727793 16.041207 5.514100 -8.406400 9.809600 -77.902654 -37.894326 64.132699 137.714709 -46.314925 -99.972214 -0.927783 0.818713 -35.034420 -7.125000 0.000000 0.000000 27.252923 25.161482 -13.993666 -111.892810 52.515796 -72.915256 1.301452 -1.154559 -14.175887 7.125000 0.000000 0.000000 
-1.038858 17.860341 4.732858 4.428313 12.302882 1.630829 -14.966366 -11.315798 -20.982997 3.904430 11.803559 37.405500 0.956217 -2.331559 -8.449123 8.878900 -16.729200 -55.670500 15.021787 -1.962356 -14.436633 -3.627271 -9.356753 32.626614 -1.665599 1.047508 -21.056886 -0.588800 4.912700 -13.659900 -17.583678 8.909708 33.715766 0.529844 3.488514 -23.462837 24.459108 -20.889907 15.123858 5.613800 -8.461100 9.669600 -78.454168 -33.919507 62.814565 141.127763 -44.281824 -102.665139 -0.987723 0.851698 -34.581026 -7.125000 0.000000 0.000000 21.165898 26.865232 -16.928473 -93.841899 57.036542 -53.071583 1.490616 -1.275193 -15.207793 7.125000 0.000000 0.000000 
-1.052867 17.821840 4.726784 5.038619 10.249414 1.748853 -15.443973 -9.643562 -21.455440 4.044160 12.071806 38.162980 0.980299 -2.179276 -9.127680 8.876400 -16.727600 -55.661900 14.459452 -0.213724 -14.930469 -3.904187 -9.770914 33.979764 -1.715119 1.743810 -20.674935 -0.573800 4.850900 -13.483900 -20.399524 9.830407 32.790366 0.682931 3.602651 -23.011694 24.234816 -20.747828 14.629638 5.497800 -8.361900 9.575600 -79.407159 -29.417789 61.488189 144.562861 -41.930433 -105.263638 -1.052723 0.875808 -34.231401 -7.125000 0.000000 0.000000 15.558422 28.239131 -19.426594 -70.724257 59.250777 -34.109084 1.155642 -1.708634 -16.801033 7.125000 0.000000 0.000000 
-1.058941 17.777558 4.728449 5.221299 8.271372 1.763856 -15.600970 -7.967433 -22.083254 4.222842 12.355537 39.046900 0.996237 -1.993204 -9.783368 8.996100 -16.805200 -56.076500 14.248342 1.707673 -15.410346 -4.173710 -10.176593 35.297491 -1.758379 2.292888 -20.428824 -0.561100 4.798000 -13.333200 -21.883727 10.317180 32.333218 0.892752 3.653343 -22.452638 23.861782 -20.386071 14.424940 5.329700 -8.129000 9.528700 -80.842155 -24.496658 60.312896 147.902548 -39.325210 -107.649738 -1.104239 0.918077 -34.014205 -7.125000 0.000000 0.000000 11.277182 29.664938 -18.776782 -55.591595 55.953682 -23.486367 0.774483 -2.022963 -16.620216 7.125000 0.000000 0.000000 
-1.049830 17.728770 4.741675 5.453243 6.378206 1.844643 -15.815811 -6.535190 -22.698408 4.402214 12.677373 39.972428 0.986742 -1.653975 -10.481430 9.123900 -16.886800 -56.517600 13.999364 3.378168 -15.864798 -4.441350 -10.550648 36.561730 -1.807479 2.826763 -20.255883 -0.538400 4.701500 -13.059100 -24.081921 10.579140 30.867664 0.858418 3.514633 -22.435231 23.986048 -20.142061 14.864212 5.272000 -7.869200 9.642800 -82.505515 -19.392727 59.620044 150.583287 -36.951878 -109.458684 -1.114452 0.994967 -33.658432 -7.125000 0.000000 0.000000 10.798738 29.754892 -16.232687 -53.603569 55.164930 -22.163393 0.722666 -2.053824 -14.285332 7.125000 0.000000 0.000000 
-1.027591 17.678316 4.761269 5.815215 4.821980 1.931417 -16.191413 -5.541356 -23.149453 4.578451 12.987039 40.861952 1.002123 -1.454980 -11.158031 9.112800 -16.879700 -56.479300 13.571298 4.475616 -16.334649 -4.693413 -10.883239 37.719018 -1.845384 3.289015 -20.083929 -0.548700 4.745600 -13.184300 -26.362329 10.613652 29.087771 0.295316 3.216031 -22.326665 24.335152 -20.064662 15.476885 5.231500 -7.651500 9.835700 -83.287885 -14.868105 59.505172 152.879506 -34.659625 -110.937191 -1.112666 1.074352 -33.212575 -7.125000 0.000000 0.000000 13.954756 29.356920 -14.185783 -58.339968 56.676190 -25.482203 0.837620 -1.916934 -12.716985 7.125000 0.000000 0.000000 
-0.995752 17.631389 4.784389 6.073436 3.629271 1.688394 -16.573776 -4.794013 -23.251486 4.763340 13.202884 41.662034 1.056817 -1.485410 -11.767198 9.074800 -16.855600 -56.348600 13.097973 5.168980 -16.621360 -4.901697 -11.147258 38.649323 -1.878328 3.741303 -19.894221 -0.578900 4.872100 -13.544000 -26.936208 10.153747 28.567303 0.296184 2.944351 -22.336363 23.561851 -19.371951 16.610619 4.927300 -7.181200 10.013400 -83.498204 -12.738141 59.119305 154.333007 -33.136625 -111.818989 -1.136222 1.121172 -31.228684 -7.125000 0.000000 0.000000 17.308385 28.775805 -10.609722 -70.958963 59.033216 -34.718741 1.096360 -1.682631 -15.044728 7.125000 0.000000 0.000000 
-0.953331 17.591320 4.807510 6.051834 2.474630 1.049973 -16.815867 -4.005146 -23.012554 4.938375 13.320924 42.333453 1.085482 -1.421793 -12.285703 9.127000 -16.888800 -56.528500 12.757557 5.746323 -16.575354 -5.044296 -11.315501 39.259598 -1.896542 4.173423 -19.614420 -0.634200 5.095500 -14.181000 -25.623678 9.376004 29.446775 0.779110 2.727085 -22.411949 21.133539 -17.994620 18.238512 4.157400 -6.490400 10.107300 -83.763144 -12.795800 57.668327 155.151110 -32.284993 -112.281136 -1.103585 1.195534 -28.404479 -7.125000 0.000000 0.000000 20.754666 30.493414 -6.023616 -84.849017 58.583256 -45.989400 1.313532 -1.412721 -16.171691 7.125000 0.000000 0.000000 
-0.899351 17.564673 4.828377 5.570141 1.192804 0.048642 -16.747123 -2.973202 -22.450524 5.092860 13.331339 42.834756 1.086871 -1.261512 -12.707429 9.153600 -16.905500 -56.619700 12.751721 6.429621 -16.116887 -5.103940 -11.384753 39.502524 -1.881362 4.478669 -19.205589 -0.720600 5.424600 -15.123700 -22.365221 8.303699 31.752100 1.215199 2.524282 -22.252529 18.080553 -16.006131 20.189022 3.344200 -5.605700 10.316900 -83.005141 -16.546887 54.934674 154.827359 -32.676869 -112.111072 -1.060514 1.169573 -26.512305 -7.125000 0.000000 0.000000 24.747472 32.495565 -0.012265 -98.949465 55.854698 -59.813236 1.370827 -1.193568 -15.965479 7.125000 0.000000 0.000000 
